# xmcd
#
# Track frame offsets:
#	150
#	30002
#	61303
#	77405
#	105641
#	126911
#	169316
#
# Disc length: 2820 seconds
#
# Revision: 0
# Processed by: cddbd v1.5.2PL0 Copyright (c) Steve Scherf et al.
# Submitted via: audiograbber 1.83.01
#
DISCID=4b0b0207
DTITLE=Driftin - Hallo Vince
DYEAR=2005
DGENRE=Blues
TTITLE0=A Boogie
TTITLE1=Overseas
TTITLE2=Agent Smith
TTITLE3=Sorrow Blues
TTITLE4=Skull
TTITLE5=Africa
TTITLE6=Lopsy Night
EXTD=
EXTT0=
EXTT1=
EXTT2=
EXTT3=
EXTT4=
EXTT5=
EXTT6=
PLAYORDER=
